<svg width="97" height="31" viewBox="0 0 97 31" fill="none" xmlns="http://www.w3.org/2000/svg">
<path d="M50.693 7.59223C50.693 8.67331 49.8233 9.54418 48.7437 9.54418C47.6641 9.54418 46.7943 8.67331 46.7943 7.59223C46.7943 6.51114 47.6341 5.64027 48.7437 5.64027C49.8533 5.6703 50.693 6.54117 50.693 7.59223ZM42.6557 11.5262C42.6557 11.7063 42.6557 12.0066 42.6557 12.0066C42.6557 12.0066 41.7261 10.8054 39.7467 10.8054C36.4778 10.8054 33.9287 13.2979 33.9287 16.7514C33.9287 20.1748 36.4478 22.6973 39.7467 22.6973C41.7561 22.6973 42.6557 21.4661 42.6557 21.4661V21.9766C42.6557 22.2168 42.8357 22.397 43.0756 22.397H45.5048V11.1057C45.5048 11.1057 43.2855 11.1057 43.0756 11.1057C42.8357 11.1057 42.6557 11.3159 42.6557 11.5262ZM42.6557 18.7634C42.2059 19.4241 41.3062 19.9946 40.2266 19.9946C38.3072 19.9946 36.8377 18.7934 36.8377 16.7514C36.8377 14.7093 38.3072 13.5081 40.2266 13.5081C41.2762 13.5081 42.2359 14.1087 42.6557 14.7394V18.7634ZM47.3042 11.1057H50.1832V22.397H47.3042V11.1057ZM90.3096 10.8054C88.3303 10.8054 87.4006 12.0066 87.4006 12.0066V5.6703H84.5216V22.397C84.5216 22.397 86.7408 22.397 86.9508 22.397C87.1907 22.397 87.3706 22.1868 87.3706 21.9766V21.4661C87.3706 21.4661 88.3003 22.6973 90.2796 22.6973C93.5485 22.6973 96.0977 20.1748 96.0977 16.7514C96.0977 13.328 93.5485 10.8054 90.3096 10.8054ZM89.8298 19.9646C88.7202 19.9646 87.8505 19.394 87.4006 18.7334V14.7093C87.8505 14.1087 88.8101 13.4781 89.8298 13.4781C91.7491 13.4781 93.2186 14.6793 93.2186 16.7214C93.2186 18.7634 91.7491 19.9646 89.8298 19.9646ZM83.0221 15.7003V22.4271H80.1431V16.0307C80.1431 14.1688 79.5433 13.4181 77.9238 13.4181C77.0541 13.4181 76.1544 13.8685 75.5846 14.5292V22.397H72.7056V11.1057H74.9848C75.2247 11.1057 75.4047 11.3159 75.4047 11.5262V12.0066C76.2444 11.1358 77.354 10.8054 78.4636 10.8054C79.7232 10.8054 80.7728 11.1658 81.6126 11.8865C82.6322 12.7274 83.0221 13.8084 83.0221 15.7003ZM65.7179 10.8054C63.7386 10.8054 62.8089 12.0066 62.8089 12.0066V5.6703H59.9299V22.397C59.9299 22.397 62.1492 22.397 62.3591 22.397C62.599 22.397 62.7789 22.1868 62.7789 21.9766V21.4661C62.7789 21.4661 63.7086 22.6973 65.688 22.6973C68.9568 22.6973 71.506 20.1748 71.506 16.7514C71.536 13.328 68.9868 10.8054 65.7179 10.8054ZM65.2381 19.9646C64.1285 19.9646 63.2588 19.394 62.8089 18.7334V14.7093C63.2588 14.1087 64.2184 13.4781 65.2381 13.4781C67.1575 13.4781 68.627 14.6793 68.627 16.7214C68.627 18.7634 67.1575 19.9646 65.2381 19.9646ZM57.4407 10.8054C58.3104 10.8054 58.7603 10.9556 58.7603 10.9556V13.6283C58.7603 13.6283 56.3611 12.8175 54.8616 14.5292V22.4271H51.9826V11.1057C51.9826 11.1057 54.2018 11.1057 54.4118 11.1057C54.6517 11.1057 54.8316 11.3159 54.8316 11.5262V12.0066C55.3714 11.376 56.541 10.8054 57.4407 10.8054ZM27.5409 21.376C27.3909 21.0156 27.241 20.6253 27.091 20.2949C26.8511 19.7544 26.6112 19.2439 26.4013 18.7634L26.3713 18.7334C24.302 14.2289 22.0827 9.6643 19.7435 5.15979L19.6535 4.97961C19.4136 4.52916 19.1737 4.04868 18.9338 3.5682C18.6339 3.02766 18.334 2.45709 17.8541 1.91655C16.8945 0.715348 15.5149 0.0546875 14.0454 0.0546875C12.5459 0.0546875 11.1964 0.715348 10.2067 1.85649C9.75689 2.39703 9.427 2.9676 9.1271 3.50814C8.88718 3.98862 8.64726 4.4691 8.40734 4.91955L8.31737 5.09973C6.00816 9.60424 3.75892 14.1688 1.68962 18.6733L1.65963 18.7334C1.4497 19.2138 1.20978 19.7244 0.969861 20.2649C0.819912 20.5952 0.669962 20.9556 0.520013 21.346C0.130145 22.4571 0.0101859 23.5081 0.160135 24.5892C0.490023 26.8415 1.98952 28.7334 4.05882 29.5742C4.83855 29.9045 5.64828 30.0547 6.48799 30.0547C6.72791 30.0547 7.02781 30.0247 7.26773 29.9946C8.25739 29.8745 9.27705 29.5442 10.2667 28.9736C11.4963 28.2829 12.6659 27.2919 13.9855 25.8505C15.305 27.2919 16.5046 28.2829 17.7042 28.9736C18.6939 29.5442 19.7135 29.8745 20.7032 29.9946C20.9431 30.0247 21.243 30.0547 21.4829 30.0547C22.3226 30.0547 23.1623 29.9045 23.9121 29.5742C26.0114 28.7334 27.4809 26.8114 27.8108 24.5892C28.0507 23.5382 27.9307 22.4871 27.5409 21.376ZM14.0154 22.9376C12.396 20.8955 11.3463 18.9736 10.9865 17.352C10.8365 16.6613 10.8065 16.0607 10.8965 15.5202C10.9565 15.0397 11.1364 14.6193 11.3763 14.2589C11.9461 13.4481 12.9058 12.9376 14.0154 12.9376C15.1251 12.9376 16.1147 13.4181 16.6546 14.2589C16.8945 14.6193 17.0744 15.0397 17.1344 15.5202C17.2244 16.0607 17.1944 16.6913 17.0444 17.352C16.6845 18.9436 15.6349 20.8655 14.0154 22.9376ZM25.9814 24.349C25.7715 25.9105 24.7218 27.2619 23.2523 27.8625C22.5326 28.1628 21.7528 28.2529 20.9731 28.1628C20.2233 28.0727 19.4736 27.8325 18.6939 27.382C17.6142 26.7814 16.5346 25.8505 15.275 24.4691C17.2543 22.0367 18.4539 19.8144 18.9038 17.8325C19.1137 16.9015 19.1437 16.0607 19.0537 15.2799C18.9338 14.5292 18.6639 13.8385 18.244 13.2379C17.3143 11.8865 15.7549 11.1057 14.0154 11.1057C12.276 11.1057 10.7166 11.9165 9.78688 13.2379C9.36702 13.8385 9.09711 14.5292 8.97715 15.2799C8.85719 16.0607 8.88718 16.9316 9.1271 17.8325C9.57695 19.8144 10.8065 22.0667 12.7559 24.4991C11.5263 25.8805 10.4167 26.8114 9.33703 27.412C8.55729 27.8625 7.80755 28.1027 7.0578 28.1928C6.24807 28.2829 5.46834 28.1628 4.77857 27.8925C3.30907 27.2919 2.25942 25.9406 2.0495 24.379C1.95953 23.6283 2.01951 22.8775 2.3194 22.0367C2.40937 21.7364 2.55932 21.4361 2.70927 21.0757C2.9192 20.5952 3.15912 20.0847 3.39904 19.5742L3.42903 19.5141C5.49833 15.0397 7.71758 10.4751 10.0268 6.03066L10.1168 5.85048C10.3567 5.40003 10.5966 4.91955 10.8365 4.4691C11.0764 3.98862 11.3463 3.53817 11.6762 3.14778C12.306 2.42706 13.1457 2.03667 14.0754 2.03667C15.0051 2.03667 15.8448 2.42706 16.4746 3.14778C16.8045 3.53817 17.0744 3.98862 17.3143 4.4691C17.5542 4.91955 17.7942 5.40003 18.0341 5.85048L18.1241 6.03066C20.4033 10.5051 22.6225 15.0697 24.6918 19.5442V19.5742C24.9317 20.0547 25.1417 20.5952 25.3816 21.0757C25.5315 21.4361 25.6815 21.7364 25.7715 22.0367C26.0114 22.8174 26.1014 23.5682 25.9814 24.349Z" fill="black"/>
</svg>
