<svg width="227" height="29" viewBox="0 0 227 29" fill="none" xmlns="http://www.w3.org/2000/svg">
<path fill-rule="evenodd" clip-rule="evenodd" d="M13.4929 0.484638C11.7941 3.08992 10.8031 6.09284 10.6173 9.19769C10.4316 12.3025 11.0577 15.4022 12.4339 18.1915L17.0136 27.3097C17.0799 27.4428 17.182 27.5548 17.3084 27.6332C17.4348 27.7115 17.5805 27.7532 17.7291 27.7535H27.232C27.4459 27.7497 27.6497 27.6621 27.7996 27.5095C27.9495 27.3569 28.0335 27.1515 28.0335 26.9376C28.0341 26.8131 28.0046 26.6903 27.9476 26.5797L14.9241 0.484638C14.8318 0.303421 14.673 0.164954 14.4809 0.0982451C14.2888 0.0315365 14.0784 0.0417628 13.8937 0.126779C13.7195 0.190774 13.5762 0.318735 13.4929 0.484638ZM8.5078 12.854C8.44594 12.7708 8.36796 12.7009 8.27851 12.6484C8.18907 12.596 8.08998 12.5621 7.98716 12.5487C7.88434 12.5354 7.77988 12.5428 7.68001 12.5707C7.58013 12.5986 7.48688 12.6462 7.40582 12.7109C7.30337 12.7821 7.22382 12.8816 7.17683 12.9972L0.378849 26.5815C0.329807 26.6762 0.300155 26.7798 0.291629 26.8861C0.283102 26.9924 0.295874 27.0993 0.329194 27.2007C0.362515 27.302 0.415715 27.3956 0.485678 27.4761C0.555641 27.5566 0.64096 27.6223 0.736637 27.6694C0.852311 27.7266 0.979716 27.756 1.10874 27.7553H10.5687C10.7181 27.7584 10.8652 27.7182 10.9922 27.6394C11.1192 27.5607 11.2206 27.4468 11.2842 27.3115C13.3165 23.0888 12.0857 16.676 8.5078 12.854ZM141.934 20.9696C141.934 16.9902 139.816 15.1151 133.862 13.8125C130.571 13.0967 129.769 12.381 129.769 11.3074C129.769 9.99053 130.943 9.43227 133.118 9.43227C135.787 9.51865 138.407 10.1725 140.803 11.3504V6.19722C138.443 5.11722 135.87 4.58388 133.275 4.63696C127.393 4.63696 124.345 7.19923 124.345 11.3933L124.374 11.4089C124.378 14.7512 125.943 17.4214 132.03 18.5505C135.665 19.3092 136.424 19.8961 136.424 21.1128C136.424 22.3295 135.665 23.0452 133.075 23.0452C129.98 22.9893 126.946 22.168 124.245 20.6547V26.1371C126.967 27.5007 129.99 28.1555 133.032 28.0409C139.401 28.0409 141.934 25.1781 141.934 20.9696ZM206.295 4.98033V27.7545H211.147V10.3912L213.193 15.0004L220.063 27.7545H226.159V4.98033H221.308V19.6812L219.476 15.4155L213.952 4.98033H206.295ZM170.126 4.98033H175.435V27.7545H170.126V4.98033ZM164.019 21.0269C164.019 17.0475 161.9 15.1723 155.947 13.8697C152.655 13.154 151.854 12.4383 151.854 11.3647C151.854 10.0478 153.027 9.48952 155.203 9.48952C157.872 9.5759 160.491 10.2298 162.888 11.4076V6.19722C160.528 5.11722 157.955 4.58388 155.36 4.63696C149.464 4.63696 146.415 7.19923 146.415 11.3933C146.415 14.7429 147.975 17.4197 154.086 18.5505C157.721 19.3092 158.48 19.8961 158.48 21.1128C158.48 22.3295 157.721 23.0452 155.131 23.0452C152.036 22.9893 149.002 22.168 146.301 20.6547V26.1371C149.018 27.5013 152.036 28.1562 155.074 28.0409C161.457 28.0409 163.99 25.1781 163.99 20.9696L164.019 21.0269ZM83.1727 27.7545V4.98033H88.5109V22.8303H95.7954L94.078 27.7545H83.1727ZM61.6446 4.98033V9.90447H67.5267V27.7545H72.8649V9.90447H79.1763V4.98033H61.6446ZM46.9054 4.98033H53.9038L61.861 27.7831H55.8502L54.6623 23.9469C51.8873 24.7628 48.9362 24.7628 46.1612 23.9469L45.0449 27.7831H38.9625L46.9054 4.98033ZM47.4779 19.3949C48.4301 19.6769 49.4187 19.8168 50.4118 19.81C51.3774 19.8341 52.3415 19.7184 53.2741 19.4665L50.4118 9.44641L47.4779 19.3949ZM112.868 4.98033H105.941L97.927 27.7831H103.995L105.126 23.9469C107.896 24.7624 110.842 24.7624 113.612 23.9469L114.743 27.7831H120.811L112.868 4.98033ZM109.376 19.81C108.383 19.8168 107.395 19.6769 106.442 19.3949L109.376 9.44641L112.239 19.4665C111.309 19.7426 110.345 19.8824 109.376 19.8816V19.81ZM187.522 4.98033H194.549L202.492 27.7831H196.423L195.293 23.9469C192.523 24.7624 189.576 24.7624 186.806 23.9469L185.676 27.7831H179.607L187.522 4.98033ZM188.123 19.3949C189.075 19.6749 190.064 19.8147 191.057 19.81V19.8816C192.026 19.8824 192.99 19.7426 193.919 19.4665L191.057 9.44641L188.123 19.3949Z" fill="black"/>
</svg>
