<svg width="96" height="31" viewBox="0 0 96 31" fill="none" xmlns="http://www.w3.org/2000/svg">
<path d="M94.7749 20.5391C94.632 20.5391 94.4892 20.6328 94.3939 20.8672C93.4416 23.5859 92.1083 25.2266 91.0131 25.2266C90.3941 25.2266 90.156 24.5234 90.156 23.4922C90.156 20.8203 91.775 15.1484 92.5845 12.5234C92.6797 12.1953 92.7273 11.9141 92.7273 11.6797C92.7273 10.9297 92.2988 10.5547 91.2512 10.5547C90.156 10.5547 88.918 10.9766 87.7752 12.9922C87.3943 11.2109 86.1562 10.4609 84.442 10.4609C82.4897 10.4609 80.5851 11.7266 79.0137 13.7422C77.4424 15.7578 75.5853 16.4141 74.2044 16.0859C75.2044 13.6953 75.5853 11.8672 75.5853 10.5547C75.5853 8.44531 74.5377 7.17969 72.8235 7.17969C70.2522 7.17969 68.7761 9.61719 68.7761 12.1484C68.7761 14.1172 69.6808 16.1328 71.6807 17.1172C70.0141 20.8203 67.5857 24.1953 66.6334 24.1953C65.4429 24.1953 65.062 18.4297 65.1572 14.3047C65.2048 11.9609 65.3953 11.8203 65.3953 11.1172C65.3953 10.6953 65.1096 10.4141 64.0144 10.4141C61.4907 10.4141 60.6813 12.5234 60.586 14.9609C60.5384 15.8984 60.3956 16.7891 60.1575 17.6797C59.1099 21.3828 56.9195 24.2422 55.491 24.2422C54.8244 24.2422 54.6339 23.5859 54.6339 22.7422C54.6339 20.0703 56.1577 16.6953 56.1577 13.8359C56.1577 11.7266 55.2053 10.4141 53.4435 10.4141C51.3484 10.4141 48.6342 12.8516 46.0153 17.3984C46.8724 13.9297 47.2057 10.5547 44.682 10.5547C44.1106 10.5547 43.5868 10.6953 43.1107 10.9766C42.7774 11.1172 42.5869 11.4453 42.5869 11.8203C42.825 15.5234 39.5394 25.0391 36.4443 25.0391C35.8729 25.0391 35.5872 24.4297 35.5872 23.4453C35.5872 20.7734 37.2062 15.1016 38.0157 12.4766C38.1109 12.1484 38.1585 11.8672 38.1585 11.5859C38.1585 10.8828 37.73 10.5078 36.6824 10.5078C35.5872 10.5078 34.3492 10.9297 33.2064 12.9453C32.7778 11.1641 31.5874 10.4141 29.8732 10.4141C27.0638 10.4141 23.9687 13.3203 22.5878 17.1172C20.7308 22.1797 17.0643 27.1016 12.0645 27.1016C7.54095 27.1016 5.16011 23.3984 5.16011 17.5391C5.16011 9.05469 11.4931 2.16406 16.1596 2.16406C18.3976 2.16406 19.4451 3.57031 19.4451 5.72656C19.4451 8.35156 17.969 9.52344 17.969 10.5547C17.969 10.8359 18.2071 11.1641 18.7309 11.1641C20.7784 11.1641 23.1592 8.82031 23.1592 5.58594C23.1592 2.35156 20.5879 0.0546875 15.9215 0.0546875C8.15997 0.0546875 0.398438 7.69531 0.398438 17.5391C0.398438 25.3672 4.30301 30.0547 11.0646 30.0547C15.6834 30.0547 19.7308 26.5391 21.8736 22.4141C22.1117 25.8359 23.683 27.6172 26.1115 27.6172C28.2542 27.6172 29.9684 26.3516 31.3017 24.1484C31.8255 26.4453 33.1588 27.5703 34.9206 27.5703C36.9205 27.5703 38.6347 26.3047 40.2061 24.0078C40.2061 25.8359 40.587 27.5703 42.206 27.5703C42.9678 27.5703 43.8725 27.3828 44.0154 26.7266C45.7296 19.8359 49.9199 14.1641 51.2055 14.1641C51.5865 14.1641 51.6817 14.5391 51.6817 14.9609C51.6817 16.8359 50.3484 20.6797 50.3484 23.1172C50.3484 25.7891 51.4912 27.5234 53.8721 27.5234C56.491 27.5234 59.1575 24.3828 60.9193 19.7422C61.4907 24.0547 62.6812 27.5234 64.5382 27.5234C66.8238 27.5234 70.9665 22.7422 73.4425 17.6797C74.3949 17.8203 75.871 17.7734 77.2995 16.7891C76.6805 18.2891 76.3472 19.9297 76.3472 21.5234C76.3472 26.2109 78.6328 27.5234 80.5851 27.5234C82.7278 27.5234 84.442 26.2578 85.7753 24.0547C86.2038 26.0234 87.3466 27.4766 89.3942 27.4766C92.5845 27.4766 95.3939 24.2422 95.3939 21.5703C95.4415 21.0078 95.1082 20.5391 94.7749 20.5391ZM28.1114 24.9922C26.8257 24.9922 26.302 23.7266 26.302 21.8047C26.302 18.4766 28.6352 12.8984 31.0636 12.8984C32.1112 12.8984 32.5398 14.1172 32.5398 15.6641C32.5398 19.0391 30.3494 24.9922 28.1114 24.9922ZM72.5378 15.0547C71.776 14.1641 71.4903 12.8984 71.4903 11.8203C71.4903 10.4609 72.0141 9.33594 72.5855 9.33594C73.1569 9.33594 73.3949 9.89844 73.3949 10.7422C73.3473 12.0547 72.8712 14.0703 72.5378 15.0547ZM82.585 24.9922C81.2993 24.9922 80.7755 23.4922 80.7755 21.8047C80.7755 18.5703 83.1088 12.8984 85.5372 12.8984C86.5848 12.8984 86.9657 14.1172 86.9657 15.6641C87.0133 19.0391 84.8706 24.9922 82.585 24.9922Z" fill="black"/>
</svg>
