<svg width="244" height="29" viewBox="0 0 244 29" fill="none" xmlns="http://www.w3.org/2000/svg">
<path fill-rule="evenodd" clip-rule="evenodd" d="M43.6394 1.82879C45.5885 2.99651 47.183 4.67442 48.2511 6.68201C53.8441 17.3262 46.2681 28.0547 36.2542 28.0547H28.5546C28.0813 28.0546 27.6127 27.9609 27.1757 27.779C26.7387 27.5971 26.3418 27.3306 26.0078 26.9947L18.3775 19.3075C18.2101 19.1388 18.0961 18.9244 18.0498 18.6911C18.0035 18.4578 18.027 18.216 18.1173 17.996C18.2075 17.776 18.3606 17.5876 18.5573 17.4544C18.754 17.3211 18.9856 17.249 19.2231 17.247H36.2542C37.0988 17.2378 37.9052 16.8929 38.496 16.2882C39.0867 15.6835 39.4134 14.8685 39.4043 14.0225C39.3951 13.1765 39.0508 12.3688 38.447 11.7771C37.8433 11.1854 37.0296 10.8582 36.185 10.8674H11.4839C11.0109 10.8676 10.5426 10.7736 10.1062 10.5908C9.6698 10.408 9.2741 10.14 8.94213 9.80247L1.31176 2.11524C1.14435 1.94655 1.03037 1.73213 0.984082 1.49884C0.937795 1.26555 0.961262 1.02377 1.05155 0.803781C1.14183 0.583792 1.29491 0.395376 1.49162 0.262135C1.68833 0.128895 1.91992 0.056753 2.15738 0.0547471H37.1888C39.46 0.0477281 41.6902 0.661069 43.6394 1.82879ZM213.687 3.63185C209.42 3.63185 206.725 6.33625 206.725 9.46662L206.695 9.51615C206.695 13.6519 210.096 14.6638 212.946 15.5116C215 16.1229 216.768 16.6489 216.768 18.199C216.768 19.6254 215.364 20.7647 213.228 20.7647C211.607 20.7506 210.054 20.1161 208.886 18.9914C208.793 18.8992 208.668 18.8474 208.537 18.8474C208.406 18.8474 208.281 18.8992 208.188 18.9914L206.349 20.834V20.8588C206.257 20.9516 206.205 21.0771 206.205 21.208C206.205 21.3388 206.257 21.4644 206.349 21.5572C207.298 22.4909 208.421 23.2275 209.655 23.7248C210.889 24.222 212.209 24.4701 213.539 24.4547C218.37 24.4547 221.071 21.7503 221.071 18.189C221.071 14.0579 217.671 13.0464 214.82 12.1983C212.763 11.5862 210.992 11.0593 210.992 9.50624C210.992 8.36207 212.253 7.37145 213.959 7.37145C215.18 7.38977 216.353 7.85285 217.258 8.67412C217.354 8.76253 217.482 8.80904 217.613 8.80347C217.743 8.7979 217.866 8.74071 217.955 8.6444L219.874 6.72754C219.969 6.63033 220.022 6.49962 220.022 6.36349C220.022 6.22736 219.969 6.09665 219.874 5.99944C218.197 4.43553 215.978 3.58644 213.687 3.63185ZM127.024 19.5041C125.949 20.2228 124.685 20.6059 123.392 20.6049V20.5999C121.66 20.5947 120 19.903 118.776 18.676C117.552 17.449 116.863 15.7865 116.859 14.0519C116.86 12.7568 117.244 11.4911 117.964 10.4149C118.683 9.3386 119.704 8.5001 120.899 8.0054C122.094 7.51071 123.409 7.38203 124.677 7.63565C125.945 7.88926 127.109 8.51378 128.023 9.43023C128.936 10.3467 129.558 11.5139 129.809 12.7843C130.061 14.0547 129.93 15.3711 129.434 16.5673C128.939 17.7634 128.1 18.7854 127.024 19.5041ZM134.192 14.0618C134.192 8.35584 129.504 3.66029 123.392 3.66029C117.279 3.66029 112.591 8.35584 112.591 14.0618C112.591 19.7678 117.279 24.4634 123.392 24.4634C129.504 24.4634 134.192 19.7678 134.192 14.0618ZM97.7186 20.6037C99.0116 20.6037 100.276 20.2197 101.351 19.5002C102.426 18.7807 103.264 17.758 103.758 16.5615C104.253 15.365 104.383 14.0484 104.13 12.7782C103.878 11.508 103.256 10.3413 102.341 9.42555C101.427 8.50979 100.262 7.88615 98.994 7.6335C97.7258 7.38084 96.4114 7.51051 95.2168 8.00611C94.0222 8.50172 93.0012 9.34099 92.2829 10.4178C91.5645 11.4946 91.1811 12.7606 91.1811 14.0557C91.1811 15.7923 91.8699 17.4578 93.0959 18.6858C94.3219 19.9138 95.9847 20.6037 97.7186 20.6037ZM97.7186 3.66406C103.826 3.66406 108.519 8.35961 108.519 14.0656C108.519 19.7716 103.826 24.4671 97.7186 24.4671C91.6113 24.4671 86.9184 19.7716 86.9184 14.0656C86.9184 8.35961 91.6064 3.66406 97.7186 3.66406ZM69.324 20.173V7.93882H72.662C73.4418 7.96188 74.2095 8.13873 74.921 8.45926C75.6325 8.77978 76.2739 9.23769 76.8086 9.80677C77.3432 10.3759 77.7606 11.045 78.0368 11.7758C78.313 12.5066 78.4426 13.2848 78.4182 14.0658C78.4267 14.8594 78.279 15.6468 77.9836 16.3832C77.6882 17.1196 77.2509 17.7906 76.6967 18.3577C76.1424 18.9248 75.482 19.377 74.7533 19.6885C74.0245 19.9999 73.2417 20.1646 72.4494 20.173H69.324ZM72.4494 4.09025C78.2748 4.09025 82.6809 8.50347 82.6809 14.0559C82.6809 19.6083 78.2748 24.0166 72.4494 24.0166H65.5756C65.4445 24.0166 65.3187 23.9644 65.2259 23.8715C65.1332 23.7787 65.0811 23.6527 65.0811 23.5213V4.60537C65.0811 4.47401 65.1332 4.34802 65.2259 4.25513C65.3187 4.16224 65.4445 4.11006 65.5756 4.11006L72.4494 4.09025ZM148.51 7.93668H144.104V13.2018H148.51C148.849 13.2178 149.189 13.1662 149.508 13.0502C149.828 12.9341 150.122 12.7559 150.372 12.5257C150.623 12.2954 150.825 12.0178 150.968 11.7088C151.111 11.3998 151.191 11.0656 151.205 10.7253C151.207 10.6923 151.207 10.6592 151.205 10.6262C151.227 9.93203 150.974 9.25723 150.5 8.75012C150.026 8.24301 149.371 7.94508 148.678 7.92182H148.505L148.51 7.93668ZM139.841 4.60819C139.841 4.47682 139.893 4.35084 139.986 4.25795C140.078 4.16506 140.204 4.11288 140.335 4.11288H148.628C152.584 4.11288 155.453 7.0154 155.453 10.6609C155.467 11.8697 155.14 13.058 154.512 14.0899C153.883 15.1217 152.977 15.9555 151.897 16.4957L155.739 23.2517C155.776 23.306 155.801 23.3668 155.813 23.4309C155.826 23.4949 155.826 23.5608 155.813 23.6248C155.8 23.6887 155.775 23.7496 155.738 23.8037C155.702 23.8578 155.655 23.9042 155.601 23.9402C155.51 23.9995 155.402 24.0274 155.294 24.0194H151.932C151.839 24.0215 151.748 23.9975 151.668 23.9502C151.589 23.9029 151.524 23.8342 151.482 23.752L147.798 17.0455H144.104V23.4845C144.104 23.6159 144.051 23.7418 143.959 23.8347C143.866 23.9276 143.74 23.9798 143.609 23.9798H140.375C140.244 23.9798 140.118 23.9276 140.025 23.8347C139.932 23.7418 139.88 23.6159 139.88 23.4845L139.841 4.60819ZM166.566 20.2673V8.02815H169.909C170.688 8.05186 171.455 8.22902 172.165 8.54952C172.876 8.87001 173.516 9.32757 174.05 9.89606C174.585 10.4646 175.002 11.1328 175.278 11.8628C175.554 12.5927 175.684 13.37 175.66 14.1502C175.677 15.7538 175.058 17.2987 173.939 18.4456C172.82 19.5925 171.292 20.2477 169.691 20.2673H166.566ZM179.923 14.1452C179.923 8.59281 175.517 4.18454 169.691 4.18454L162.818 4.20435C162.686 4.20435 162.561 4.25653 162.468 4.34942C162.375 4.44231 162.323 4.5683 162.323 4.69966V23.6156C162.323 23.747 162.375 23.8729 162.468 23.9658C162.561 24.0587 162.686 24.1109 162.818 24.1109H169.691C175.522 24.1109 179.923 19.6977 179.923 14.1452ZM192.917 9.04744L190.504 15.5955H195.335L192.917 9.04744ZM189.079 19.2954L187.497 23.6542C187.463 23.7576 187.397 23.8471 187.307 23.9089C187.218 23.9707 187.111 24.0012 187.002 23.9959H183.571C183.44 24.0083 183.31 23.9684 183.209 23.8848C183.108 23.8012 183.044 23.6808 183.031 23.5501C183.022 23.4602 183.038 23.3694 183.076 23.2876L190.494 4.39647C190.529 4.29487 190.596 4.20754 190.686 4.14767C190.775 4.0878 190.881 4.05864 190.988 4.06461H194.831C194.938 4.05864 195.044 4.0878 195.133 4.14767C195.223 4.20754 195.29 4.29487 195.325 4.39647L202.743 23.2876C202.771 23.3465 202.788 23.4103 202.792 23.4756C202.796 23.5409 202.786 23.6063 202.765 23.668C202.743 23.7297 202.71 23.7865 202.666 23.8351C202.622 23.8838 202.569 23.9233 202.51 23.9514C202.429 23.9899 202.338 24.0053 202.248 23.9959H198.816C198.708 24.0012 198.601 23.9707 198.511 23.9089C198.422 23.8471 198.355 23.7576 198.322 23.6542L196.739 19.2954H189.079ZM239.357 4.58454V12.039H230.831V4.60931C230.831 4.47794 230.779 4.35196 230.686 4.25907C230.594 4.16618 230.468 4.114 230.337 4.114H227.078C226.947 4.114 226.821 4.16618 226.728 4.25907C226.635 4.35196 226.583 4.47794 226.583 4.60931V23.4757C226.58 23.5408 226.59 23.6059 226.611 23.6672C226.633 23.7286 226.667 23.7851 226.711 23.8334C226.754 23.8817 226.807 23.9209 226.866 23.9488C226.924 23.9766 226.988 23.9926 227.053 23.9958H230.312C230.443 23.9958 230.569 23.9436 230.662 23.8507C230.754 23.7578 230.807 23.6318 230.807 23.5005V15.9024H239.332V23.4757C239.329 23.5428 239.339 23.6099 239.362 23.6729C239.386 23.7359 239.421 23.7934 239.468 23.8421C239.514 23.8907 239.57 23.9294 239.631 23.9559C239.693 23.9823 239.759 23.9959 239.826 23.9958H243.105C243.172 23.9991 243.239 23.9888 243.302 23.9654C243.365 23.9421 243.422 23.9061 243.471 23.8598C243.519 23.8134 243.558 23.7577 243.584 23.6959C243.611 23.6342 243.624 23.5677 243.624 23.5005V4.58454C243.628 4.51744 243.617 4.45036 243.594 4.38738C243.571 4.3244 243.535 4.26683 243.489 4.21818C243.442 4.16953 243.387 4.13082 243.325 4.10439C243.263 4.07797 243.197 4.06438 243.13 4.06447H239.851C239.784 4.06111 239.717 4.07143 239.654 4.09482C239.591 4.1182 239.534 4.15415 239.485 4.20048C239.437 4.24682 239.398 4.30256 239.372 4.36433C239.345 4.4261 239.332 4.4926 239.332 4.55978L239.357 4.58454Z" fill="black"/>
</svg>
