<svg width="191" height="80" viewBox="0 0 191 80" fill="none" xmlns="http://www.w3.org/2000/svg">
<g clip-path="url(#clip0_61_187)">
<path d="M43.0846 7.85241C35.7338 7.85241 31.2438 13.408 31.2438 22.7778C31.2438 32.1476 35.7338 37.699 43.0846 37.699C50.4353 37.699 54.9212 32.1435 54.9212 22.7778C54.9212 13.4121 50.4353 7.85241 43.0846 7.85241ZM43.0846 36.0697C40.2819 36.0697 39.4362 33.039 39.4362 22.7778C39.4362 12.5166 40.2778 9.47761 43.0846 9.47761C45.8914 9.47761 46.733 12.5083 46.733 22.7778C46.733 33.0473 45.8955 36.0697 43.0846 36.0697ZM96.9984 50.1493C93.9179 50.1493 91.6169 51.3267 90.3275 53.3499V43.0846H82.471V62.1559C82.471 72.5332 76.5755 77.4129 71.194 77.4129C67.2098 77.4129 65.5846 74.7181 65.5846 65.3566C65.5846 55.995 66.5962 51.7745 69.7927 51.7745C71.9237 51.7745 73.6609 53.7935 75.51 58.4536H77.4171V51.5506C75.0622 50.597 72.2056 50.1493 69.9585 50.1493C61.932 50.1493 57.3881 55.8748 57.3881 65.3566C57.3881 74.8383 61.8781 79.9959 69.5108 79.9959C75.8458 79.9959 80.3358 76.6294 82.4668 70.9619V79.3242H90.3234V58.0597C90.3234 54.8051 92.1186 53.1758 93.9718 53.1758C95.825 53.1758 96.3847 54.6932 96.3847 56.9362V79.3201H104.237V58.3914C104.237 52.5539 101.376 50.141 96.9984 50.141M67.6037 0.779436H59.7471V37.0232H67.6037V0.779436ZM88.0265 0.779436V10.6468C87.3383 8.93864 85.6343 7.85241 82.9187 7.85241C76.7454 7.85241 72.6534 13.3499 72.6534 22.6658C72.6534 31.9818 76.2977 37.699 82.6368 37.699C85.597 37.699 87.5912 36.335 88.5282 33.4287V37.0274H95.8748V0.779436H88.0224M84.1542 35.4561C81.6294 35.4561 80.7877 32.9312 80.7877 22.6119C80.7877 12.8483 81.6294 9.98342 84.2662 9.98342C87.1849 9.98342 88.1924 13.408 88.1924 22.6119C88.1924 31.8159 86.903 35.4561 84.1542 35.4561ZM129.822 7.85241C126.281 7.85241 123.769 9.69735 122.629 12.3134C121.563 9.35738 119.324 7.85241 116.248 7.85241C112.886 7.85241 110.473 9.3325 109.291 11.7164V8.52405H101.94V37.0232H109.797V15.8168C109.797 12.5622 111.368 10.8789 113.275 10.8789C114.905 10.8789 115.634 12.1683 115.634 14.4693V37.0232H123.487V15.8168C123.487 12.5622 125.058 10.8789 126.965 10.8789C128.595 10.8789 129.32 12.1683 129.32 14.4693V37.0232H137.177V16.0987C137.177 10.2612 134.204 7.84826 129.826 7.84826M123.308 62.6078L118.765 59.9129C115.738 58.1177 114.619 57.0522 114.619 55.199C114.619 53.068 116.078 51.7745 118.603 51.7745C121.571 51.7745 123.76 53.6816 125.054 58.4536H126.961V51.1567C124.49 50.597 121.629 50.1451 119.167 50.1451C112.881 50.1451 109.009 53.2338 109.009 58.2836C109.009 61.762 110.916 64.233 114.959 66.6418L118.719 68.8889C121.853 70.738 122.923 72.0813 122.923 74.1584C122.923 76.8532 121.24 78.3126 118.213 78.3126C114.565 78.3126 112.434 76.0116 111.086 70.8499H109.179V78.8765C112.04 79.6642 115.07 80 117.595 80C124.772 80 128.872 76.6874 128.872 71.0199C128.872 67.0978 127.019 64.7969 123.317 62.6078M153.329 7.85241C150.352 7.85241 146.874 8.41211 143.619 9.42372V16.1567H145.527C147.152 11.9486 149.341 9.58955 152.483 9.58955C154.449 9.58955 155.178 10.4851 155.178 12.7322V16.3226C155.178 18.1177 154.731 18.6236 152.653 19.3532L150.518 20.0829C144.291 22.2139 141.488 24.9005 141.488 29.7844C141.488 35.0041 144.627 37.6949 149.117 37.6949C152.338 37.6949 155.004 36.2977 155.908 33.607V37.0232H163.035V16.3765C163.035 10.709 159.668 7.84826 153.329 7.84826M155.178 29.3947C155.178 33.097 153.943 34.8383 151.978 34.8383C150.129 34.8383 149.453 33.3209 149.453 29.5066V28.7189C149.453 24.2869 150.406 22.4959 152.989 21.1484L155.178 20.029V29.3947ZM183.512 7.85241C180.083 7.85241 177.575 9.33665 176.331 11.7413V8.52405H168.98V37.0232H176.837V15.7629C176.837 12.5083 178.632 10.8789 180.485 10.8789C182.338 10.8789 182.898 12.3964 182.898 14.6393V37.0232H190.75V16.0987C190.75 10.2612 187.89 7.84826 183.516 7.84826M27.8773 67.0978C27.8773 74.3864 22.5539 79.3284 14.1335 79.3284H1.68325V66.3143H3.58624C5.32753 73.9967 8.52405 77.4751 13.8557 77.4751C18.2338 77.4751 20.5348 75.1202 20.5348 71.3018C20.5348 67.2678 18.0638 65.4146 14.4154 63.2836L8.91791 60.029C4.26617 57.2803 1.62935 53.9677 1.62935 49.2537C1.62935 44.0506 4.68491 40.7048 9.53566 39.2579C2.50415 37.4337 0 31.1567 0 19.9171C0 7.17662 5.32338 0 16.0987 0H26.1443V10.7711H24.1791C21.8781 3.92206 19.859 1.79104 16.1526 1.79104C10.8209 1.79104 9.30763 7.51658 9.30763 20.2529C9.30763 34.8964 10.597 38.1468 14.6393 38.1468C17.67 38.1468 19.1833 36.2396 19.1833 31.6376V26.024C19.1833 22.6078 18.0638 21.3723 14.5274 20.8085V19.0133H26.534V49.6435H24.7388C22.0439 41.961 18.5075 40.2197 14.5813 40.2197C10.6551 40.2197 8.40796 42.0149 8.40796 45.5514C8.40796 48.8557 10.3731 50.369 14.0216 52.558L20.0249 56.1484C24.7927 59.0091 27.8773 61.704 27.8773 67.0896M42.9768 50.1493C40 50.1493 36.5216 50.7131 33.267 51.7206V58.4577H35.1741C36.7993 54.2454 38.9884 51.8906 42.131 51.8906C44.0962 51.8906 44.8259 52.7902 44.8259 55.0332V58.6236C44.8259 60.4187 44.3781 60.9246 42.301 61.6542L40.17 62.3839C33.9428 64.5149 31.136 67.2098 31.136 72.0854C31.136 77.3051 34.2786 79.9959 38.7687 79.9959C41.9901 79.9959 44.6559 78.5987 45.5597 75.9038V79.3201H52.6824V58.6733C52.6824 53.0058 49.3201 50.141 42.9809 50.141M44.8259 71.6957C44.8259 75.398 43.5904 77.1393 41.6252 77.1393C39.7761 77.1393 39.1003 75.626 39.1003 71.8076V71.0241C39.1003 66.5962 40.0539 64.801 42.6368 63.4536L44.8259 62.33V71.6957Z" fill="black"/>
</g>
<defs>
<clipPath id="clip0_61_187">
<rect width="190.746" height="80" fill="white"/>
</clipPath>
</defs>
</svg>
