<svg width="200" height="80" viewBox="0 0 200 80" fill="none" xmlns="http://www.w3.org/2000/svg">
<g clip-path="url(#clip0_61_143)">
<path d="M0 0V5.4734H38.9296V0H0ZM44.4452 0V5.4734H99.9218C99.9218 5.4734 94.2552 0 86.75 0H44.4452ZM110.805 0V5.4734H144.367L142.375 0H110.805ZM168.43 0L166.437 5.4734H199.695V0H168.43ZM0 10.6444V16.1178H38.9296V10.6444H0ZM44.4452 10.6522V16.118H106.359C106.359 16.118 105.636 11.9054 104.375 10.6522H44.4452ZM110.805 10.6522V16.118H148.047L146.203 10.6522H110.805ZM164.445 10.6522L162.601 16.118H199.695V10.6522H164.445ZM11.1874 21.2888V26.77H28.0468V21.2888H11.1874ZM55.6328 21.2888V26.77H72.4922V21.2888H55.6328ZM88.8906 21.2888V26.77H105.75C105.75 26.77 106.82 23.8754 106.82 21.2888H88.8906ZM121.992 21.2888V26.77H151.883L149.891 21.2888H121.992ZM160.773 21.2888L158.773 26.77H188.812V21.2888H160.773ZM11.1874 31.9412V37.4146H28.0468V31.9412H11.1874ZM55.6328 31.9412V37.4146H98.6952C98.6952 37.4146 102.298 34.6062 103.445 31.9412H55.6328ZM121.992 31.9412V37.4146H138.852V34.3678L139.922 37.4146H170.805L171.953 34.3678V37.4146H188.813V31.9412H157.164L155.484 36.5772L153.797 31.9412H121.992ZM11.1874 42.5856V48.059H28.0468V42.5856H11.1874ZM55.6328 42.5856V48.059H103.445C102.297 45.4028 98.6952 42.5856 98.6952 42.5856H55.6328ZM121.992 42.5856V48.059H138.852V42.5856H121.992ZM141.914 42.5856L143.953 48.059H167.109L169.047 42.5856H141.914ZM171.953 42.5856V48.059H188.812V42.5856H171.953ZM11.1874 53.23V58.7032H28.0468V53.23H11.1874ZM55.6328 53.23V58.7032H72.4922V53.23H55.6328ZM88.8906 53.23V58.7032H106.82C106.82 56.1202 105.75 53.23 105.75 53.23H88.8906ZM121.992 53.23V58.7032H138.852V53.23H121.992ZM145.742 53.23L147.719 58.7032H163.242L165.234 53.23H145.742ZM171.953 53.23V58.7032H188.812V53.23H171.953ZM0.3046 63.8744V69.3556H39.2342V63.8744H0.3046ZM44.4452 63.8744V69.3556H104.375C105.636 68.1006 106.359 63.8744 106.359 63.8744H44.4452ZM111.109 63.8744V69.3556H138.852V63.8744H111.109ZM149.578 63.8744L151.609 69.3556H159.508L161.414 63.8744H149.578ZM171.953 63.8744V69.3556H200V63.8744H171.953ZM0.3046 74.5266V80H39.2342V74.5266H0.3046ZM44.4452 74.5266V79.9922H86.75C94.2552 79.9922 99.9218 74.5266 99.9218 74.5266H44.4452ZM111.109 74.5266V80H138.852V74.5266H111.109ZM153.43 74.5266L155.383 79.9846L155.719 79.9922L157.703 74.5266H153.43ZM171.953 74.5266V80H200V74.5266H171.953Z" fill="black"/>
</g>
<defs>
<clipPath id="clip0_61_143">
<rect width="200" height="80" fill="white"/>
</clipPath>
</defs>
</svg>
