<svg width="320" height="80" viewBox="0 0 320 80" fill="none" xmlns="http://www.w3.org/2000/svg">
<g clip-path="url(#clip0_61_132)">
<path fill-rule="evenodd" clip-rule="evenodd" d="M314.206 0H246.03C242.77 0 240 2.57905 240 5.75619V74.24C240 77.4209 241.817 80 245.078 80H313.253C316.518 80 320 77.4209 320 74.24V5.75619C320 2.57905 317.47 0 314.206 0ZM270.476 30.4762H281.246V35.9657H281.364C283.006 33.0057 287.855 30 293.851 30C305.36 30 308.571 36.1105 308.571 47.4286V68.5714H297.143V49.5124C297.143 44.4457 295.12 40 290.389 40C284.644 40 281.905 43.8895 281.905 50.2743V68.5714H270.476V30.4762ZM251.429 68.5714H262.857V30.4762H251.429V68.5714ZM264.286 17.1429C264.286 18.0807 264.102 19.0095 263.743 19.8761C263.385 20.7428 262.859 21.5303 262.196 22.1937C261.533 22.8571 260.746 23.3834 259.88 23.7426C259.013 24.1018 258.085 24.2868 257.147 24.2871C256.209 24.2873 255.28 24.1028 254.413 23.7441C253.547 23.3854 252.76 22.8595 252.096 22.1964C251.433 21.5333 250.907 20.7461 250.548 19.8797C250.189 19.0132 250.004 18.0845 250.004 17.1467C250.004 15.253 250.756 13.4368 252.094 12.0976C253.433 10.7583 255.249 10.0057 257.143 10.0052C259.037 10.0046 260.853 10.7563 262.192 12.0949C263.532 13.4334 264.285 15.2492 264.286 17.1429Z" fill="black"/>
<path d="M228.571 68.5714H217.905V64.0343H217.79C215.417 66.7847 211.295 69.0476 204.309 69.0476C194.785 69.0476 186.583 61.8819 186.583 49.5657C186.583 37.8324 194.667 30 204.667 30C210.857 30 214.701 32.2019 217.029 35.0133H217.143V11.4286H228.571V68.5714ZM207.539 38.5714C201.006 38.5714 197.333 43.2305 197.333 49.4247C197.333 55.6228 201.006 60.4762 207.539 60.4762C214.08 60.4762 217.905 55.7486 217.905 49.4247C217.905 42.9257 214.08 38.5714 207.539 38.5714ZM181.566 62.4343C178.869 65.9276 173.314 69.0476 164.347 69.0476C152.385 69.0476 144.766 61.1238 144.766 48.6781C144.766 37.619 151.665 30 164.682 30C175.924 30 182.857 37.3828 182.857 50.3695C182.857 51.6647 182.648 52.9524 182.648 52.9524H155.547L155.611 54.1295C156.362 57.4133 158.842 61.4286 164.533 61.4286C169.501 61.4286 172.907 58.7581 174.446 56.6666L181.566 62.4343ZM171.859 45.7105C171.935 41.6952 168.987 37.619 164.339 37.619C158.808 37.619 155.855 41.939 155.547 45.7143H171.859V45.7105Z" fill="black"/>
<path d="M144.762 30.4762H131.429L118.095 45.7143V11.4286H106.667V68.5714H118.095V49.5238L132.187 68.5714H145.68L129.524 47.7447L144.762 30.4762ZM60.9524 30.4762H71.7219V35.9657H71.84C73.4819 33.0057 78.3314 30 84.3276 30C95.8362 30 99.0476 37.3028 99.0476 47.4285V68.5714H87.619V49.5124C87.619 43.9047 85.5962 40 80.8648 40C75.12 40 72.3809 44.5485 72.3809 50.2743V68.5714H60.9524V30.4762ZM41.9048 68.5714H53.3333V30.4762H41.9048V68.5714ZM47.6229 24C48.5367 24.0215 49.4456 23.8601 50.2962 23.5253C51.1467 23.1905 51.9218 22.689 52.5757 22.0503C53.2297 21.4116 53.7493 20.6486 54.1041 19.8061C54.4588 18.9637 54.6416 18.0588 54.6416 17.1447C54.6416 16.2306 54.4588 15.3258 54.1041 14.4833C53.7493 13.6409 53.2297 12.8779 52.5757 12.2392C51.9218 11.6005 51.1467 11.099 50.2962 10.7642C49.4456 10.4293 48.5367 10.268 47.6229 10.2895C45.8327 10.3317 44.1301 11.0725 42.8789 12.3535C41.6278 13.6345 40.9273 15.3541 40.9273 17.1447C40.9273 18.9354 41.6278 20.655 42.8789 21.936C44.1301 23.217 45.8327 23.9578 47.6229 24ZM11.4286 11.4286H0V68.5714H34.2857V57.1428H11.4286V11.4286Z" fill="black"/>
</g>
<defs>
<clipPath id="clip0_61_132">
<rect width="320" height="80" fill="white"/>
</clipPath>
</defs>
</svg>
