<svg width="300" height="80" viewBox="0 0 300 80" fill="none" xmlns="http://www.w3.org/2000/svg">
<path d="M96.8437 15.9485C96.5464 15.9493 96.2591 16.0556 96.0332 16.2484C95.8074 16.4413 95.6577 16.7082 95.611 17.0012L88.5028 61.9932C88.4769 62.1575 88.4869 62.3254 88.5321 62.4855C88.5774 62.6455 88.6568 62.7939 88.765 62.9204C88.8732 63.0469 89.0075 63.1485 89.1587 63.2183C89.31 63.2881 89.4746 63.3243 89.6412 63.3246H98.0729C98.3699 63.324 98.657 63.2179 98.8829 63.0254C99.1087 62.8329 99.2586 62.5664 99.3056 62.2737L101.392 49.061C101.439 48.7683 101.589 48.5019 101.815 48.3093C102.041 48.1168 102.328 48.0107 102.625 48.0101H110.288C119.245 48.0101 126.847 41.4894 128.235 32.6516C129.636 23.7408 122.662 15.967 112.774 15.9485H96.8437ZM105.039 25.9929H111.172C116.221 25.9929 117.863 28.9652 117.343 32.2532C116.824 35.5483 114.273 37.9754 109.388 37.9754H103.146L105.039 25.9929ZM145.384 29.0532C143.255 29.0611 140.805 29.4955 138.055 30.6387C131.747 33.2619 128.717 38.686 127.432 42.6397C127.432 42.6397 123.337 54.7022 132.588 61.3302C132.588 61.3302 141.167 67.7083 150.826 60.9353L150.66 61.9932C150.634 62.1575 150.644 62.3254 150.69 62.4855C150.735 62.6455 150.814 62.7939 150.923 62.9204C151.031 63.0469 151.165 63.1485 151.316 63.2183C151.468 63.2881 151.632 63.3243 151.799 63.3246H159.802C160.415 63.3246 160.937 62.8779 161.033 62.272L165.902 31.4609C165.928 31.2966 165.918 31.1287 165.873 30.9687C165.828 30.8086 165.748 30.6602 165.64 30.5337C165.532 30.4072 165.398 30.3056 165.246 30.2358C165.095 30.166 164.931 30.1298 164.764 30.1295H156.76C156.145 30.1295 155.624 30.5763 155.528 31.1804L155.267 32.838H155.265C155.265 32.838 151.771 29.0294 145.383 29.0532H145.384ZM145.646 38.7853C146.565 38.7853 147.405 38.9102 148.159 39.1529C151.611 40.2601 153.571 43.5683 153.003 47.158C152.305 51.5778 148.673 54.8333 144.017 54.8333C143.098 54.8333 142.256 54.7075 141.503 54.4657C138.05 53.3585 136.079 50.0485 136.648 46.4589C137.346 42.0408 140.99 38.7853 145.646 38.7853Z" fill="black"/>
<path d="M212.085 15.9485C211.471 15.9485 210.95 16.3953 210.854 17.0012L203.744 61.9932C203.718 62.1576 203.728 62.3257 203.773 62.4859C203.819 62.6461 203.898 62.7945 204.007 62.9211C204.115 63.0476 204.25 63.1492 204.401 63.2189C204.553 63.2885 204.717 63.3246 204.884 63.3246H213.316C213.929 63.3246 214.451 62.8788 214.547 62.2737L216.635 49.061C216.682 48.7683 216.832 48.5019 217.058 48.3093C217.283 48.1168 217.57 48.0107 217.867 48.0101H225.531C234.487 48.0101 242.089 41.4894 243.477 32.6516C244.878 23.7408 237.902 15.967 228.015 15.9485H212.085ZM220.28 25.9929H226.413C231.461 25.9929 233.106 28.9652 232.586 32.2532C232.066 35.5483 229.514 37.9754 224.628 37.9754H218.387L220.28 25.9929ZM260.626 29.0532C258.497 29.0611 256.047 29.4955 253.297 30.6387C246.989 33.2619 243.957 38.686 242.672 42.6397C242.672 42.6397 238.578 54.7022 247.83 61.3302C247.83 61.3302 256.409 67.7083 266.067 60.9353L265.9 61.9932C265.874 62.1576 265.884 62.3257 265.929 62.4859C265.975 62.6461 266.054 62.7945 266.163 62.9211C266.271 63.0476 266.406 63.1492 266.557 63.2189C266.709 63.2885 266.873 63.3246 267.04 63.3246H275.042C275.339 63.3239 275.626 63.2176 275.852 63.0247C276.078 62.8318 276.228 62.565 276.274 62.272L281.144 31.4609C281.169 31.2965 281.159 31.1284 281.114 30.9682C281.069 30.8081 280.989 30.6596 280.881 30.5331C280.772 30.4065 280.638 30.3049 280.486 30.2353C280.335 30.1656 280.17 30.1295 280.003 30.1295H272.002C271.387 30.1295 270.865 30.5763 270.769 31.1804L270.507 32.838C270.507 32.838 267.013 29.0294 260.626 29.0532ZM260.886 38.7853C261.805 38.7853 262.647 38.9102 263.4 39.1529C266.853 40.2601 268.81 43.5683 268.244 47.158C267.545 51.5778 263.914 54.8333 259.258 54.8333C258.339 54.8333 257.499 54.7075 256.745 54.4657C253.293 53.3585 251.322 50.0485 251.89 46.4589C252.588 42.0408 256.23 38.7853 260.886 38.7853Z" fill="black"/>
<path d="M169.682 30.0982C169.534 30.098 169.389 30.1326 169.257 30.1994C169.126 30.2662 169.012 30.3631 168.925 30.4823C168.838 30.6015 168.781 30.7396 168.758 30.8852C168.734 31.0308 168.746 31.1798 168.792 31.3201L177.567 58.5417L169.631 71.372C169.246 71.9948 169.693 72.7974 170.427 72.7974H179.805C180.073 72.7976 180.337 72.7285 180.571 72.5968C180.805 72.4652 181.001 72.2754 181.14 72.0459L205.651 31.5157C206.028 30.8928 205.58 30.0964 204.852 30.0964H195.474C195.203 30.0963 194.937 30.1667 194.701 30.3006C194.466 30.4345 194.269 30.6274 194.131 30.8602L184.483 47.143L179.584 30.9818C179.424 30.4559 178.94 30.0973 178.389 30.0973L169.682 30.0982Z" fill="black"/>
<path d="M290.315 15.9485C289.699 15.9485 289.176 16.3949 289.079 17.0002L281.943 61.9496C281.917 62.1139 281.927 62.2818 281.973 62.4418C282.018 62.6019 282.098 62.7502 282.207 62.8766C282.316 63.003 282.451 63.1045 282.603 63.1741C282.755 63.2437 282.92 63.2797 283.088 63.2797H291.548C292.164 63.2797 292.687 62.8343 292.784 62.2299L299.922 17.2787C299.948 17.1143 299.938 16.9462 299.892 16.786C299.846 16.6259 299.766 16.4775 299.657 16.351C299.548 16.2246 299.413 16.1231 299.261 16.0536C299.109 15.9841 298.943 15.9483 298.775 15.9485H290.315Z" fill="black"/>
<path fill-rule="evenodd" clip-rule="evenodd" d="M10.2473 0.554108C10.6647 0.196954 11.1956 0.000479295 11.7448 0L35.8112 0.00059936C47.2072 0.00059936 55.4954 8.30051 55.3022 18.3525C52.4655 16.8653 49.1352 16.0142 45.4856 16.0142H25.4191C24.285 16.0142 23.3186 16.8397 23.142 17.9615L19.3802 41.8319C19.6446 40.8319 20.5565 40.1193 21.6151 40.1193H32.7346C43.925 40.1193 53.4231 32.0018 55.1578 21.0022C55.2896 20.1662 55.3612 19.3379 55.3767 18.5209C62.1363 22.0434 66.0883 29.1464 64.8568 36.955C63.1226 47.954 53.6252 56.0709 42.4347 56.0709H35.3275C34.7768 56.0714 34.2444 56.2671 33.8258 56.6229C33.4073 56.9787 33.1301 57.4713 33.0441 58.0121L29.8649 78.06C29.6872 79.1776 28.7194 80 27.5809 80H15.5115C15.2402 79.9999 14.9721 79.9414 14.7257 79.8285C14.4793 79.7156 14.2604 79.551 14.0841 79.346C13.9078 79.1409 13.7783 78.9004 13.7044 78.6408C13.6305 78.3813 13.6141 78.1089 13.6562 77.8424L15.8442 64.0514H1.87298C1.60231 64.0514 1.33485 63.9927 1.08904 63.8793C0.843228 63.7659 0.624915 63.6005 0.449087 63.3946C0.273259 63.1886 0.144118 62.947 0.0705468 62.6863C-0.00302473 62.4256 -0.0193012 62.1521 0.022889 61.8845L9.46774 1.94851C9.55351 1.40568 9.82991 0.911263 10.2473 0.554108Z" fill="black"/>
</svg>
