<svg width="128" height="31" viewBox="0 0 128 31" fill="none" xmlns="http://www.w3.org/2000/svg">
<path fill-rule="evenodd" clip-rule="evenodd" d="M0.327934 16.2245C0.503844 17.9918 0.676743 20.3031 0.696809 22.3028C0.700822 22.7014 1.0309 23.0271 1.43122 23.0271C1.45128 23.0271 1.47101 23.0264 1.49108 23.0248L1.54392 23.0204C1.7807 23.0021 1.99439 22.8718 2.11847 22.6701L2.39705 22.2114C2.52982 21.9918 2.76893 21.8571 3.02611 21.8571C3.16456 21.8571 3.30001 21.8961 3.41706 21.9694C4.39159 22.5861 6.07042 23.3978 8.64686 23.3978C13.8305 23.3978 17.0982 19.9841 17.0982 15.9138C17.0982 11.7798 13.9877 10.4325 11.726 9.55518C11.2447 9.36332 10.7636 9.18596 10.2851 9.00954C9.35692 8.66735 8.43829 8.32868 7.54659 7.89453C6.88643 7.58119 5.37882 6.86086 5.37882 5.17021C5.37882 3.69789 6.69781 1.88323 8.92946 1.88323C10.6571 1.88323 12.0403 2.85323 13.076 4.26155C13.5091 4.90821 13.7319 5.39387 14.1262 6.4322C14.1686 6.80286 14.487 7.0862 14.8616 7.0862C15.2676 7.0862 15.6017 6.7532 15.6017 6.34854C15.6017 6.25254 15.5829 6.15754 15.5465 6.06887C15.2873 4.29921 15.088 2.52156 14.9492 0.738237C14.9198 0.34824 14.5843 0.0452459 14.192 0.0549125C13.9466 0.0612458 13.7202 0.189576 13.5891 0.396575L13.3389 0.789572C13.1419 1.09724 12.7473 1.21557 12.4132 1.06324C10.9013 0.370908 9.39264 0.222911 8.3325 0.222911C3.96452 0.222911 0.537955 2.72923 0.537955 6.9862C0.537955 10.7839 3.45502 12.1676 4.72591 12.7705L4.75043 12.7822C5.32153 13.0374 5.90511 13.2676 6.48528 13.4963C6.8309 13.6326 7.17531 13.7684 7.51516 13.9088C10.5942 15.0681 12.1661 15.8511 12.1661 17.7911C12.1661 19.8901 10.4371 21.5508 8.07934 21.5508C4.84474 21.5508 3.30436 19.1711 2.86425 18.4818C2.37765 17.7051 2.01981 16.8555 1.80411 15.9651C1.70812 15.6018 1.34794 15.3668 0.975389 15.4241L0.946628 15.4285C0.563038 15.4868 0.288806 15.8395 0.327934 16.2245ZM18.3186 21.4951C18.0126 21.5464 17.7885 21.8114 17.7885 22.1231V22.1588C17.7885 22.5071 18.0761 22.7941 18.4256 22.7941C18.4456 22.7941 18.4657 22.7931 18.4858 22.7911C19.0215 22.7398 19.5957 22.7084 20.5847 22.7084C23.1551 22.7084 24.5266 22.7511 25.5941 22.8181C25.6075 22.8191 25.6208 22.8194 25.6342 22.8194C25.9844 22.8194 26.2726 22.5321 26.2726 22.1828V22.0991C26.2726 21.8154 26.087 21.5591 25.8128 21.4881C25.0453 21.2858 24.7955 20.8884 24.7955 19.4514C24.7955 18.0588 24.7955 13.6042 24.7453 12.0345C24.7406 11.8252 24.8386 11.6258 25.0082 11.5018C25.6426 11.0248 26.3014 10.7145 27.1515 10.7145C29.1945 10.7145 29.2574 12.4375 29.2888 13.9402L29.3517 18.8265C29.3791 20.7331 29.2648 21.1704 28.3461 21.4181C28.0672 21.4908 27.8745 21.7444 27.8745 22.0308V22.1644C27.8745 22.5138 28.1628 22.8008 28.513 22.8008C28.5324 22.8008 28.5514 22.8001 28.5702 22.7981C29.2089 22.7428 29.8962 22.7084 31.1423 22.7084C33.3512 22.7084 34.6956 22.7471 35.5858 22.8068C35.5995 22.8078 35.6136 22.8081 35.6273 22.8081C35.9768 22.8081 36.2644 22.5214 36.2644 22.1731V22.1718C36.2687 21.8708 36.0557 21.6071 35.7601 21.5464C34.7213 21.3541 34.5056 20.8714 34.5056 20.0794C34.5056 19.8039 34.522 19.0204 34.5379 18.2619C34.5527 17.5502 34.5671 16.8606 34.5671 16.6331V13.8831C34.4384 12.1698 34.1829 10.5522 32.6525 9.49251C31.678 8.80452 30.4834 8.49152 29.2888 8.49152C27.6331 8.49152 26.5084 9.00118 25.3225 9.68751C25.2232 9.74718 25.1095 9.77851 24.9934 9.77851C24.7095 9.77851 24.4577 9.58951 24.3794 9.31752C24.358 9.23618 24.3339 9.15785 24.3082 9.07518C24.2226 8.81452 23.9774 8.63719 23.7022 8.63719C23.6313 8.63719 23.5607 8.64919 23.4935 8.67218C22.2521 9.09951 19.886 9.76585 18.3212 10.0395C18.0142 10.0922 17.7885 10.3542 17.7885 10.6662V10.7402C17.7872 11.0218 17.9744 11.2718 18.2457 11.3512C18.9884 11.5605 19.5172 11.9918 19.5172 13.5642C19.5172 14.1125 19.525 14.8327 19.5329 15.553C19.5407 16.2732 19.5486 16.9935 19.5486 17.5418C19.5486 18.0118 19.5486 19.8901 19.4543 20.6121C19.3673 21.2131 18.7928 21.4168 18.3186 21.4951ZM44.5204 16.2748C44.8692 16.2748 45.1572 16.5601 45.1589 16.9081V19.6494C45.1599 19.8604 45.0545 20.0584 44.8789 20.1764C44.4974 20.4271 44.1345 20.6108 43.5258 20.6108C42.3313 20.6108 41.8912 19.6721 41.8912 18.8265C41.8912 17.1801 43.2988 16.5635 44.3589 16.2955C44.4114 16.2818 44.4659 16.2748 44.5204 16.2748ZM52.6594 21.0274C52.6594 20.8344 52.5712 20.6518 52.4203 20.5311C52.1943 20.3501 51.8709 20.3458 51.6401 20.5211C51.4602 20.6608 51.2686 20.7661 51.0659 20.7661C50.2485 20.7661 50.2813 19.5468 50.3128 19.0145L50.3743 12.0305C50.3743 9.42985 48.3951 8.55252 45.6933 8.55252C41.7968 8.55252 37.4917 10.4325 37.4917 12.7508C37.4917 13.9088 38.4034 14.5355 39.3779 14.5355C40.1625 14.5355 41.0424 14.1282 41.2939 13.0642C41.341 12.8605 41.3646 12.6491 41.3882 12.4377C41.4117 12.2262 41.4353 12.0148 41.4825 11.8112C41.6711 11.1218 42.2369 10.4952 43.2743 10.4952C43.4315 10.4952 44.6873 10.4952 45.0646 11.5918C45.196 11.9848 45.1946 13.1242 45.192 14.0925C45.1913 14.3961 44.9716 14.6588 44.6716 14.7135C42.1697 15.1605 36.6446 16.6575 36.6446 20.2361C36.6446 21.3941 37.3346 23.3351 40.2267 23.3351C42.2099 23.3351 43.9944 22.3381 44.8589 21.7784C45.1344 21.5971 45.5087 21.6611 45.7077 21.9238C45.8765 22.1464 46.0725 22.3471 46.2906 22.5221C46.9748 23.0211 47.7988 23.2951 48.6466 23.3051C49.4713 23.3051 50.9686 22.9948 52.4789 21.4711C52.5946 21.3521 52.6594 21.1931 52.6594 21.0274ZM64.4361 15.8188C64.4361 17.9481 63.5887 21.1737 61.2641 21.1737C59.0966 21.1737 59.0966 19.3891 59.0966 18.3867C59.0966 17.9869 59.088 16.8773 59.0796 15.7909C59.0715 14.7487 59.0635 13.7279 59.0635 13.3751C59.0635 12.7184 59.0635 10.5568 61.1698 10.5568C63.493 10.5568 64.4361 13.5631 64.4361 15.8188ZM52.5224 10.4998C53.5943 10.7945 53.9371 11.3585 53.8799 13.7511L53.9113 23.898C53.9113 24.5874 53.9113 26.4343 53.8799 27.0297C53.8799 27.9227 53.7799 28.5637 52.611 28.763C52.3224 28.8113 52.1194 29.072 52.1194 29.3623V29.4407C52.1208 29.7697 52.3927 30.0397 52.7224 30.0397C52.7321 30.0397 52.7415 30.0393 52.7512 30.039C53.7571 29.9963 54.5213 29.975 55.7032 29.975C57.2569 29.9843 58.8107 30.0103 60.3638 30.053C60.3688 30.0533 60.3735 30.0533 60.3782 30.0533C60.7089 30.0533 60.9811 29.782 60.9811 29.4523C60.9852 29.1673 60.7828 28.918 60.5026 28.8627C59.2023 28.6433 59.1281 27.709 59.1281 26.497V22.8827C59.1294 22.554 59.4013 22.2844 59.731 22.2844C59.8324 22.2844 59.932 22.31 60.021 22.3587C60.6283 22.6847 61.5055 22.9907 62.7101 22.9907C66.6363 22.9907 69.9984 19.7011 69.9984 14.9731C69.9984 11.5281 67.6423 8.27114 63.8402 8.27114C62.2971 8.27114 61.0811 8.68247 59.8481 9.47013C59.7531 9.52846 59.6438 9.55946 59.5324 9.55946C59.2401 9.55946 58.9883 9.34713 58.9394 9.06013C58.8993 8.83647 58.8665 8.65847 58.8338 8.51314C58.7779 8.2368 58.5321 8.03581 58.2495 8.03581C58.1957 8.03581 58.1425 8.04314 58.0907 8.05747C56.986 8.35647 54.7414 8.93313 52.6197 9.1598C52.3174 9.19447 52.087 9.45313 52.088 9.75646V9.91313C52.0853 10.1825 52.2632 10.4231 52.5224 10.4998ZM80.9906 22.709C84.3324 22.709 85.1671 22.709 86.4429 22.803C86.459 22.804 86.4754 22.8044 86.4918 22.8044C86.8867 22.8044 87.2118 22.4804 87.2118 22.0867C87.2118 22.082 87.2118 22.077 87.2114 22.0724C87.2118 21.72 86.9496 21.4181 86.6001 21.3674C85.9543 21.2804 85.5326 21.1137 85.2641 20.7977C84.8868 20.2977 84.8554 20.1097 84.7925 16.8201L84.7611 7.11181C84.7611 2.95884 84.7611 2.39651 86.6228 2.16418C86.9917 2.13418 87.279 1.82318 87.279 1.45452C87.279 1.06352 86.9563 0.742187 86.5643 0.742187C86.5449 0.742187 86.5252 0.742855 86.5058 0.744522L86.4935 0.744933C85.5217 0.777509 84.3878 0.815521 82.6237 0.815521C80.859 0.815521 79.0915 0.791522 77.3254 0.744522C76.9227 0.733189 76.591 1.05352 76.591 1.49218C76.5913 1.83885 76.8455 2.13751 77.1883 2.19418C78.1484 2.35384 78.5213 2.48485 78.7587 3.04018C78.9801 3.47884 79.0102 4.1995 79.0417 6.57915V16.5381C79.0417 20.5071 78.9658 21.1411 77.204 21.3874C76.8619 21.4467 76.6097 21.7454 76.6097 22.0917C76.6097 22.4837 76.9334 22.8067 77.327 22.8067C77.3384 22.8067 77.3498 22.8064 77.3612 22.8057C78.4313 22.7304 79.1617 22.709 80.9904 22.709H80.9906ZM87.9703 21.4941C87.6646 21.5454 87.4402 21.8104 87.4402 22.122V22.1577C87.4402 22.506 87.7278 22.793 88.0773 22.793C88.0974 22.793 88.1174 22.792 88.1375 22.79C88.6732 22.7387 89.2478 22.7074 90.2364 22.7074C92.8068 22.7074 94.1786 22.75 95.2458 22.817C95.2592 22.818 95.2725 22.8184 95.2859 22.8184C95.6364 22.8184 95.9247 22.531 95.9247 22.1817V22.098C95.9247 21.8144 95.7387 21.558 95.4645 21.487C94.6956 21.2847 94.4472 20.8874 94.4472 19.4504C94.4472 18.0577 94.4472 13.6031 94.397 12.0334C94.392 11.8244 94.4896 11.6251 94.6585 11.5008C95.2929 11.0238 95.9531 10.7135 96.8032 10.7135C98.8466 10.7135 98.9081 12.4364 98.9409 13.9391L99.0038 18.8254C99.0308 20.7321 98.9165 21.1694 97.9978 21.4171C97.7192 21.4897 97.5263 21.7434 97.5263 22.0297V22.1634C97.5266 22.5127 97.8149 22.7997 98.165 22.7997C98.1841 22.7997 98.2031 22.799 98.2222 22.797C98.861 22.7417 99.5465 22.7074 100.794 22.7074C103.002 22.7074 104.348 22.746 105.236 22.8057C105.251 22.8067 105.265 22.807 105.279 22.807C105.629 22.807 105.916 22.5204 105.916 22.172V22.1707C105.92 21.8697 105.708 21.606 105.412 21.5454C104.372 21.353 104.157 20.8704 104.157 20.0784C104.157 19.8029 104.174 19.0193 104.19 18.2608C104.205 17.5492 104.22 16.8596 104.22 16.6321V13.9334C104.22 13.9164 104.22 13.8991 104.218 13.8821C104.092 12.1688 103.835 10.5511 102.303 9.49146C101.328 8.80347 100.134 8.49047 98.9409 8.49047C97.2834 8.49047 96.1588 9.00013 94.9729 9.68646C94.8739 9.7458 94.7605 9.77679 94.6451 9.77679C94.3612 9.77679 94.1097 9.58813 94.0315 9.31647C94.0101 9.23543 93.9858 9.15737 93.9602 9.07503L93.9599 9.07413C93.8746 8.81347 93.6291 8.63614 93.3542 8.63614C93.283 8.63614 93.2124 8.64814 93.1456 8.67113C91.9025 9.09846 89.5377 9.7648 87.9733 10.0385C87.6646 10.0911 87.4402 10.3531 87.4402 10.6651V10.7391C87.4389 11.0208 87.6261 11.2708 87.8974 11.3501C88.6404 11.5594 89.1692 11.9908 89.1692 13.5631C89.1692 14.1114 89.177 14.8317 89.1849 15.5519C89.1928 16.2722 89.2006 16.9924 89.2006 17.5407V17.5409C89.2006 18.011 89.2006 19.8891 89.1063 20.6111C89.019 21.2121 88.4448 21.4157 87.9703 21.4941ZM120.23 20.5984C120.576 20.2564 120.522 19.6811 120.128 19.3964C119.826 19.1804 119.411 19.2017 119.133 19.4477C118.274 20.1997 117.307 20.7351 116.138 20.7351C113.939 20.7351 111.927 18.3554 111.927 14.8164C111.927 13.2811 112.43 10.1808 114.254 10.1808C115.227 10.1808 115.855 11.2461 116.138 11.8414L116.203 11.9868C116.741 13.1989 116.809 13.3531 117.081 13.5944C117.427 13.9391 117.993 14.1584 118.464 14.1584C119.533 14.1584 120.443 13.2498 120.443 12.1861C120.443 9.93013 117.521 8.58447 114.442 8.58447C109.76 8.58447 105.926 11.4655 105.926 15.9428C105.926 20.2024 109.226 23.304 113.719 23.304C116.16 23.2844 118.498 22.3124 120.23 20.5984ZM127.325 20.5157C127.325 18.8881 126.007 17.6661 124.467 17.6661C123.178 17.6661 121.669 18.6374 121.669 20.5784C121.688 22.1074 122.964 23.3514 124.498 23.3354C126.007 23.3354 127.325 22.1137 127.325 20.5157Z" fill="#221F20"/>
</svg>
