<svg width="73" height="31" viewBox="0 0 73 31" fill="none" xmlns="http://www.w3.org/2000/svg">
<path fill-rule="evenodd" clip-rule="evenodd" d="M39.2407 4.12007L34.2207 5.2015V1.11609L39.2407 0.0546875V4.12007ZM49.6823 6.38281C47.7223 6.38281 46.4622 7.30403 45.7622 7.94488L45.5023 6.70324H41.1022V30.0541L46.1023 28.9927L46.1222 23.3252C46.8423 23.8459 47.9023 24.5869 49.6623 24.5869C53.2423 24.5869 56.5023 21.7031 56.5023 15.3547C56.4823 9.547 53.1823 6.38281 49.6823 6.38281ZM48.4823 20.1811C47.3023 20.1811 46.6022 19.7605 46.1222 19.2398L46.1023 11.81C46.6223 11.2292 47.3423 10.8287 48.4823 10.8287C50.3023 10.8287 51.5623 12.8714 51.5623 15.4949C51.5623 18.1784 50.3223 20.1811 48.4823 20.1811ZM72.261 15.5549C72.261 10.4282 69.781 6.38281 65.041 6.38281C60.281 6.38281 57.401 10.4282 57.401 15.5149C57.401 21.5429 60.801 24.5869 65.681 24.5869C68.061 24.5869 69.861 24.0462 71.221 23.2852V19.2799C69.861 19.9608 68.301 20.3813 66.321 20.3813C64.381 20.3813 62.661 19.7004 62.441 17.3373H72.221C72.221 17.2269 72.2282 16.9762 72.2365 16.6873L72.2365 16.6868V16.6866L72.2365 16.686V16.6858L72.2366 16.6854C72.2478 16.2933 72.261 15.8314 72.261 15.5549ZM62.381 13.6524C62.381 11.3894 63.761 10.4482 65.021 10.4482C66.241 10.4482 67.541 11.3894 67.541 13.6524H62.381ZM39.2407 6.72266H34.2207V24.2458H39.2407V6.72266ZM28.5227 6.72263L28.8427 8.20459C30.0227 6.04173 32.3627 6.48231 33.0027 6.72263V11.3287C32.3827 11.1084 30.3827 10.8281 29.2027 12.3701V24.2458H24.2027V6.72263H28.5227ZM18.8429 2.37891L13.9628 3.42028L13.9428 19.4615C13.9428 22.4254 16.1629 24.6083 19.1229 24.6083C20.7629 24.6083 21.9629 24.3079 22.6229 23.9474V19.8821C21.9829 20.1424 18.8229 21.0636 18.8229 18.0997V10.9903H22.6229V6.72466H18.8229L18.8429 2.37891ZM7.02173 10.7286C5.96173 10.7286 5.32173 11.029 5.32173 11.81C5.32173 12.6628 6.42318 13.0379 7.78966 13.5033C10.0173 14.2619 12.9494 15.2605 12.9617 18.9594C12.9617 22.5442 10.1017 24.6069 5.94173 24.6069C4.22173 24.6069 2.34172 24.2665 0.481719 23.4654V18.6991C2.16172 19.6203 4.28173 20.3012 5.94173 20.3012C7.06173 20.3012 7.86174 20.0008 7.86174 19.0796C7.86174 18.135 6.66774 17.7033 5.22626 17.182C3.03099 16.3882 0.261719 15.3868 0.261719 12.0503C0.261719 8.50562 2.96173 6.38281 7.02173 6.38281C8.68174 6.38281 10.3217 6.64316 11.9817 7.30403V12.0103C10.4617 11.1892 8.54174 10.7286 7.02173 10.7286Z" fill="black"/>
</svg>
